<svg width="375" height="330" viewBox="0 0 375 330" fill="none" xmlns="http://www.w3.org/2000/svg">
<path d="M185.01 173.912C201.09 173.912 214.126 160.85 214.126 144.737C214.126 128.624 201.09 115.561 185.01 115.561C168.93 115.561 155.895 128.624 155.895 144.737C155.895 160.85 168.93 173.912 185.01 173.912Z" fill="#E1EAF3"/>
<path d="M114.198 215.729C113.581 215.433 113.055 214.976 112.675 214.406C112.296 213.835 112.076 213.173 112.039 212.489L111.616 204.454C111.563 203.444 111.913 202.454 112.589 201.702C113.264 200.95 114.209 200.497 115.218 200.442L182.047 196.905C183.055 196.852 184.043 197.203 184.793 197.88C185.544 198.556 185.996 199.504 186.05 200.514L186.474 208.549C186.526 209.559 186.176 210.549 185.501 211.301C184.826 212.053 183.88 212.506 182.872 212.561L116.043 216.098C115.407 216.133 114.772 216.006 114.198 215.729Z" fill="#E1EAF3"/>
<path d="M160.267 215.886C159.617 215.571 159.069 215.078 158.687 214.464C158.306 213.849 158.105 213.139 158.11 212.416L158.031 197.288C158.035 196.787 158.137 196.291 158.332 195.829C158.527 195.367 158.811 194.948 159.167 194.597C159.524 194.245 159.946 193.967 160.41 193.779C160.874 193.591 161.37 193.496 161.871 193.5L192.358 196.194C193.165 196.199 194.184 197.451 195.003 198.457C195.26 198.773 195.482 199.045 195.644 199.21C195.715 199.283 195.783 199.358 195.847 199.435C196.429 200.13 196.745 201.011 196.737 201.919L196.67 209.964C196.66 210.975 196.251 211.942 195.531 212.651C194.811 213.361 193.84 213.755 192.83 213.748L161.91 216.262C161.342 216.261 160.78 216.132 160.267 215.886Z" fill="#010A5C"/>
<path d="M179.334 330H171.305C170.295 329.999 169.327 329.596 168.613 328.881C167.899 328.166 167.498 327.196 167.497 326.184V258.034C167.498 257.023 167.9 256.053 168.613 255.337C169.327 254.622 170.295 254.219 171.305 254.218H179.334C180.344 254.219 181.312 254.622 182.026 255.337C182.74 256.053 183.141 257.023 183.142 258.034V326.184C183.141 327.196 182.74 328.166 182.026 328.881C181.312 329.596 180.344 329.999 179.334 330Z" fill="#E1EAF3"/>
<path d="M200.514 330H192.484C191.475 329.999 190.507 329.596 189.793 328.881C189.079 328.166 188.677 327.196 188.676 326.184V258.034C188.677 257.023 189.079 256.053 189.793 255.337C190.507 254.622 191.475 254.219 192.484 254.218H200.514C201.523 254.219 202.491 254.622 203.205 255.337C203.919 256.053 204.321 257.023 204.322 258.034V326.184C204.321 327.196 203.919 328.166 203.205 328.881C202.491 329.596 201.523 329.999 200.514 330Z" fill="#E1EAF3"/>
<path d="M188.886 155.55L188.916 154.46C186.892 154.403 185.107 154.276 183.767 153.295C183.386 153 183.074 152.628 182.85 152.202C182.627 151.776 182.497 151.307 182.471 150.826C182.447 150.532 182.492 150.237 182.601 149.964C182.709 149.69 182.88 149.445 183.098 149.248C183.988 148.495 185.421 148.739 186.465 149.218L187.365 149.632L185.638 136.99L184.561 137.138L186.029 147.892C185.428 147.668 184.781 147.599 184.146 147.691C183.511 147.782 182.91 148.031 182.396 148.415C182.05 148.718 181.779 149.096 181.603 149.521C181.428 149.946 181.353 150.406 181.384 150.864C181.416 151.51 181.588 152.141 181.889 152.713C182.189 153.285 182.611 153.784 183.125 154.175C184.848 155.437 187.087 155.5 188.886 155.55Z" fill="#2F2E41"/>
<path d="M179.23 138.065H173.37V139.156H179.23V138.065Z" fill="#2F2E41"/>
<path d="M197.726 138.065H191.866V139.156H197.726V138.065Z" fill="#2F2E41"/>
<path d="M218.181 241.899L191.307 188.199H191.686C192.624 188.198 193.523 187.825 194.186 187.16C194.849 186.496 195.222 185.596 195.223 184.656V183.566C195.222 182.626 194.849 181.726 194.186 181.061C193.523 180.397 192.624 180.023 191.686 180.022H179.718C178.78 180.023 177.882 180.397 177.219 181.061C176.556 181.726 176.183 182.626 176.182 183.566V184.656C176.185 185.523 176.505 186.358 177.082 187.004C177.659 187.65 178.452 188.06 179.312 188.158L152.361 241.928C151.079 244.486 150.471 247.329 150.596 250.188C150.721 253.047 151.573 255.826 153.072 258.262C154.571 260.697 156.667 262.708 159.161 264.102C161.655 265.497 164.463 266.229 167.319 266.229H203.195C206.054 266.229 208.866 265.496 211.363 264.1C213.86 262.704 215.959 260.691 217.461 258.253C218.963 255.815 219.818 253.032 219.944 250.17C220.07 247.307 219.463 244.46 218.181 241.899Z" fill="#010A5C"/>
<path d="M186.268 200.353L246.886 171.941C247.801 171.513 248.848 171.466 249.798 171.811C250.747 172.156 251.521 172.864 251.949 173.78L255.351 181.068C255.778 181.985 255.824 183.034 255.48 183.985C255.136 184.936 254.429 185.712 253.515 186.142L192.897 214.554C191.982 214.982 190.935 215.028 189.985 214.683C189.036 214.338 188.262 213.63 187.834 212.714L184.432 205.426C184.219 204.973 184.098 204.481 184.076 203.981C184.054 203.48 184.131 202.98 184.303 202.509C184.437 202.136 184.629 201.786 184.87 201.472C185.24 200.992 185.719 200.609 186.268 200.353Z" fill="#E1EAF3"/>
<path d="M184.189 200.178L210.877 184.237C211.787 183.8 212.833 183.742 213.785 184.076C214.737 184.41 215.519 185.109 215.958 186.019L222.688 199.568C222.906 200.021 223.032 200.513 223.059 201.016C223.086 201.518 223.014 202.02 222.847 202.494C222.679 202.969 222.42 203.405 222.084 203.778C221.747 204.151 221.341 204.454 220.887 204.67L192.378 215.705C191.631 216.065 190.166 215.391 188.988 214.85C188.619 214.681 188.3 214.534 188.082 214.458C187.986 214.424 187.892 214.386 187.801 214.346C186.972 213.979 186.301 213.328 185.909 212.51L182.429 205.259C182.123 204.62 182 203.908 182.074 203.203C182.148 202.498 182.416 201.827 182.848 201.265C183.204 200.803 183.663 200.43 184.189 200.178Z" fill="#010A5C"/>
<path d="M162.014 129.562C161.625 129.561 161.251 129.405 160.976 129.129C160.701 128.853 160.546 128.479 160.545 128.089C160.543 127.973 160.556 127.857 160.583 127.744L168.193 94.1552C168.251 93.9022 168.374 93.6688 168.55 93.4784C168.726 93.288 168.948 93.1472 169.196 93.0702C169.443 92.9931 169.706 92.9824 169.959 93.0393C170.211 93.0961 170.445 93.2184 170.635 93.394L195.865 116.805C196.055 116.982 196.195 117.205 196.271 117.452C196.348 117.7 196.359 117.964 196.302 118.217C196.245 118.47 196.123 118.703 195.948 118.894C195.773 119.085 195.551 119.227 195.304 119.305L162.456 129.496C162.313 129.54 162.164 129.562 162.014 129.562Z" fill="#010A5C"/>
<path d="M182.65 105.007L166.802 101.847L167.051 100.744L181.062 103.536L182.65 105.007Z" fill="white"/>
<path d="M195.129 116.591L164.828 110.549L165.078 109.441L193.54 115.113L195.129 116.591Z" fill="white"/>
<path d="M184.289 122.366L182.014 123.07L162.86 119.251L163.109 118.142L184.289 122.366Z" fill="white"/>
<path d="M258.168 130.076C260.809 130.076 262.95 127.93 262.95 125.283C262.95 122.637 260.809 120.491 258.168 120.491C255.527 120.491 253.385 122.637 253.385 125.283C253.385 127.93 255.527 130.076 258.168 130.076Z" fill="#E1EAF3"/>
<path d="M196.679 6.84609C198.566 6.84609 200.095 5.31354 200.095 3.42305C200.095 1.53255 198.566 0 196.679 0C194.793 0 193.263 1.53255 193.263 3.42305C193.263 5.31354 194.793 6.84609 196.679 6.84609Z" fill="#FF6B00"/>
<path d="M122.21 112.96C124.097 112.96 125.626 111.428 125.626 109.537C125.626 107.647 124.097 106.114 122.21 106.114C120.323 106.114 118.794 107.647 118.794 109.537C118.794 111.428 120.323 112.96 122.21 112.96Z" fill="#FF6B00"/>
<path d="M241.771 101.322C243.658 101.322 245.187 99.7896 245.187 97.8991C245.187 96.0086 243.658 94.4761 241.771 94.4761C239.884 94.4761 238.355 96.0086 238.355 97.8991C238.355 99.7896 239.884 101.322 241.771 101.322Z" fill="#E1EAF3"/>
<path d="M137.924 147.876C139.81 147.876 141.34 146.343 141.34 144.453C141.34 142.562 139.81 141.029 137.924 141.029C136.037 141.029 134.508 142.562 134.508 144.453C134.508 146.343 136.037 147.876 137.924 147.876Z" fill="#E1EAF3"/>
<path d="M245.87 157.46C247.757 157.46 249.286 155.928 249.286 154.037C249.286 152.147 247.757 150.614 245.87 150.614C243.984 150.614 242.454 152.147 242.454 154.037C242.454 155.928 243.984 157.46 245.87 157.46Z" fill="#E6E6E6"/>
<path d="M215.809 35.5996C217.696 35.5996 219.225 34.0671 219.225 32.1766C219.225 30.2861 217.696 28.7535 215.809 28.7535C213.922 28.7535 212.393 30.2861 212.393 32.1766C212.393 34.0671 213.922 35.5996 215.809 35.5996Z" fill="#CCCCCC"/>
<path d="M86.6946 73.2372C90.2716 73.463 93.7442 74.535 96.8278 76.3654C99.9115 78.1957 102.518 80.7322 104.435 83.7671C104.972 84.6274 105.673 85.5729 105.301 86.6318C105.172 87.0379 104.908 87.3879 104.555 87.6246C104.201 87.8614 103.778 87.9709 103.354 87.9353C102.825 87.8212 102.349 87.5361 101.998 87.1239C101.647 86.7117 101.441 86.1953 101.412 85.6543C101.383 85.1133 101.533 84.5779 101.838 84.1304C102.143 83.683 102.586 83.3485 103.099 83.1786C105.58 82.1182 108.083 83.757 110.104 85.0649C114.708 88.045 119.773 90.7401 125.352 91.0797C130.515 91.3939 136.05 89.3657 138.922 84.8798C139.424 84.095 138.177 83.3698 137.677 84.1507C134.829 88.5996 129.072 90.1974 124.067 89.5098C121.084 89.0381 118.204 88.0582 115.551 86.6126C114.175 85.8971 112.841 85.104 111.534 84.2703C110.29 83.4005 108.971 82.643 107.593 82.0068C105.296 81.0611 102.254 81.1349 100.649 83.3125C99.1517 85.3439 100.309 88.726 102.813 89.2971C103.363 89.4056 103.93 89.3758 104.465 89.2104C105 89.045 105.486 88.7491 105.879 88.3493C106.272 87.9495 106.559 87.4583 106.716 86.9197C106.873 86.381 106.894 85.8118 106.777 85.2631C106.527 84.0668 105.628 82.8961 104.933 81.9183C102.842 78.9712 100.118 76.5315 96.9616 74.7791C93.8052 73.0267 90.2967 72.0062 86.6946 71.7927C85.7673 71.7467 85.7697 73.1913 86.6946 73.2372L86.6946 73.2372Z" fill="#CCCCCC"/>
<path d="M288.727 116.964C286.33 115.418 284.333 113.324 282.899 110.855C281.466 108.386 280.636 105.612 280.479 102.76C280.439 101.954 280.318 101.025 280.986 100.434C281.233 100.202 281.551 100.062 281.888 100.035C282.226 100.008 282.562 100.096 282.843 100.285C283.166 100.57 283.386 100.953 283.47 101.375C283.555 101.798 283.498 102.237 283.309 102.624C283.119 103.01 282.808 103.324 282.424 103.517C282.039 103.709 281.602 103.769 281.179 103.688C279.046 103.46 277.942 101.35 277.044 99.6569C274.999 95.7987 272.525 91.9598 268.781 89.5568C265.317 87.3334 260.688 86.5919 256.959 88.592C256.306 88.9419 256.892 89.93 257.541 89.5818C261.24 87.5982 265.856 88.7246 269.066 91.1463C270.955 92.6325 272.577 94.4318 273.86 96.4662C274.539 97.4974 275.158 98.5665 275.744 99.6533C276.271 100.741 276.894 101.779 277.605 102.756C278.835 104.305 280.976 105.435 282.933 104.546C283.369 104.32 283.746 103.995 284.034 103.597C284.322 103.198 284.513 102.738 284.592 102.252C284.671 101.767 284.636 101.27 284.489 100.8C284.341 100.331 284.087 99.9025 283.745 99.5495C283.405 99.2607 282.999 99.0609 282.564 98.968C282.128 98.875 281.677 98.8918 281.249 99.0169C280.822 99.1419 280.432 99.3713 280.114 99.6845C279.797 99.9977 279.562 100.385 279.431 100.811C279.23 101.814 279.226 102.846 279.419 103.851C279.73 106.71 280.678 109.462 282.193 111.905C283.707 114.348 285.749 116.42 288.168 117.967C288.794 118.359 289.351 117.355 288.727 116.964L288.727 116.964Z" fill="#CCCCCC"/>
<path d="M170.848 22.1852C168.003 22.0056 165.241 21.153 162.789 19.6972C160.336 18.2415 158.263 16.2241 156.739 13.8103C156.311 13.126 155.754 12.3741 156.05 11.5318C156.153 11.2089 156.362 10.9305 156.643 10.7422C156.925 10.5539 157.261 10.4668 157.599 10.4952C158.019 10.5858 158.398 10.8126 158.677 11.1404C158.956 11.4683 159.12 11.879 159.143 12.3093C159.166 12.7396 159.047 13.1655 158.804 13.5213C158.562 13.8772 158.209 14.1432 157.801 14.2783C155.828 15.1217 153.837 13.8183 152.23 12.7781C148.568 10.4079 144.539 8.26435 140.102 7.99423C135.996 7.74434 131.593 9.35748 129.31 12.9253C128.91 13.5495 129.902 14.1263 130.3 13.5052C132.565 9.96678 137.143 8.69595 141.124 9.24285C143.497 9.61799 145.787 10.3973 147.897 11.5471C148.992 12.1161 150.053 12.7469 151.093 13.41C152.082 14.1018 153.131 14.7043 154.227 15.2103C156.054 15.9625 158.473 15.9037 159.75 14.1719C160.02 13.7615 160.192 13.2933 160.249 12.8047C160.307 12.3162 160.25 11.8209 160.083 11.3583C159.916 10.8958 159.643 10.4789 159.286 10.1409C158.929 9.80296 158.499 9.55334 158.028 9.41201C157.591 9.3257 157.14 9.34938 156.714 9.48093C156.289 9.61249 155.902 9.8478 155.59 10.1658C155.278 10.4838 155.049 10.8745 154.924 11.3029C154.799 11.7313 154.783 12.184 154.876 12.6204C155.187 13.5943 155.686 14.498 156.343 15.2807C158.006 17.6247 160.172 19.5651 162.682 20.9588C165.193 22.3526 167.983 23.1643 170.848 23.3341C171.586 23.3706 171.584 22.2216 170.848 22.1852L170.848 22.1852Z" fill="#CCCCCC"/>
<path d="M173.45 58.583H170.034V69.8302H173.45V58.583Z" fill="#CCCCCC"/>
<path d="M118.218 50.734L120.592 48.3551L112.791 40.5386L110.417 42.9175L118.218 50.734Z" fill="#B3B3B3"/>
<path d="M214.265 74.3703L216.639 76.7492L224.439 68.9327L222.065 66.5538L214.265 74.3703Z" fill="#B3B3B3"/>
<path d="M117.249 171.585L119.624 173.964L127.424 166.147L125.05 163.768L117.249 171.585Z" fill="#FF6B00"/>
</svg>
