<svg width="20" height="21" viewBox="0 0 20 21" fill="none" xmlns="http://www.w3.org/2000/svg">
<path d="M1.68916 14.6858C1.73999 14.6042 1.81916 14.5983 1.92999 14.6692C4.45916 16.1358 7.21166 16.8733 10.185 16.8733C12.1692 16.8733 14.1267 16.5008 16.0608 15.7633L16.2792 15.6658C16.375 15.6233 16.4417 15.5958 16.4825 15.575C16.64 15.5133 16.7542 15.5442 16.8475 15.6658C16.9325 15.785 16.9108 15.8983 16.7642 15.9992C16.5867 16.1308 16.3475 16.2842 16.0642 16.4533C15.2 16.9692 14.2283 17.3683 13.1542 17.6542C12.1295 17.9297 11.0736 18.072 10.0125 18.0775C8.43833 18.0775 6.94583 17.8025 5.53833 17.2525C4.14977 16.709 2.87067 15.9194 1.76249 14.9217C1.69249 14.8708 1.65833 14.8192 1.65833 14.7683C1.65833 14.7358 1.67166 14.7067 1.69249 14.6775L1.68916 14.6858ZM6.25499 10.3617C6.25499 9.66165 6.42749 9.06582 6.77083 8.56832C7.11583 8.07499 7.58499 7.70082 8.18999 7.44665C8.74499 7.21249 9.41083 7.04665 10.215 6.94499C10.4867 6.91415 10.9325 6.87332 11.5483 6.82415V6.56582C11.5483 5.92165 11.4783 5.48332 11.3417 5.26249C11.1317 4.96332 10.8 4.81165 10.3392 4.81165H10.2142C9.88083 4.84415 9.59249 4.94665 9.34833 5.13082C9.10327 5.31894 8.93598 5.59064 8.87833 5.89415C8.83749 6.10249 8.73499 6.21665 8.57749 6.24915L6.82333 6.02915C6.64916 5.98665 6.56416 5.90415 6.56416 5.75749C6.56416 5.72665 6.56916 5.69582 6.57916 5.65499C6.75332 4.75665 7.17499 4.08749 7.84583 3.65165C8.52416 3.22332 9.30583 2.97332 10.2025 2.92249H10.5783C11.7275 2.92249 12.6358 3.22332 13.2817 3.81915C13.3775 3.92165 13.4708 4.02749 13.565 4.15082C13.6483 4.26665 13.7217 4.37082 13.76 4.46499C13.8125 4.55749 13.8658 4.69415 13.8967 4.86082C13.9392 5.03832 13.97 5.15415 13.9908 5.21582C14.01 5.28749 14.0333 5.42415 14.0442 5.64415C14.0492 5.86249 14.0575 5.98582 14.0575 6.02832V9.69998C14.0575 9.96165 14.0983 10.2017 14.1717 10.4208C14.245 10.6375 14.3167 10.7967 14.39 10.89L14.7467 11.3575C14.8 11.4316 14.832 11.5189 14.8392 11.61C14.8392 11.695 14.7983 11.7667 14.7158 11.8267C13.8808 12.5575 13.4217 12.9533 13.35 13.0167C13.2358 13.1108 13.0892 13.1208 12.9125 13.0492C12.7842 12.9411 12.6621 12.8259 12.5467 12.7042L12.3317 12.4617C12.2892 12.4092 12.2142 12.3167 12.11 12.1683L11.9017 11.8658C11.3383 12.4825 10.7867 12.87 10.2333 13.0267C9.88833 13.1308 9.47166 13.1833 8.95916 13.1833C8.18749 13.1833 7.54166 12.9458 7.03999 12.4642C6.54166 11.9842 6.28999 11.3067 6.28999 10.42L6.25416 10.3675L6.25499 10.3617ZM8.86416 10.0558C8.86416 10.4517 8.96166 10.7658 9.15999 11.005C9.35666 11.2425 9.62916 11.3617 9.96416 11.3617C9.99333 11.3617 10.0375 11.355 10.0975 11.3467C10.1625 11.3367 10.19 11.33 10.215 11.33C10.6417 11.2192 10.9667 10.9458 11.2058 10.5117C11.3213 10.3154 11.4054 10.1022 11.455 9.87998C11.5183 9.65665 11.5383 9.46832 11.5475 9.32499C11.5608 9.18665 11.5608 8.94748 11.5608 8.62499V8.24915C10.975 8.24915 10.5275 8.28998 10.2242 8.37248C9.33833 8.62498 8.88749 9.18665 8.88749 10.0633L8.86333 10.05V10.0558H8.86416ZM15.2358 14.9433C15.2567 14.9008 15.2883 14.8667 15.3267 14.8242C15.5775 14.6567 15.8233 14.5392 16.0575 14.4775C16.4241 14.3832 16.7994 14.3271 17.1775 14.31C17.275 14.3017 17.3725 14.31 17.4658 14.3308C17.915 14.3733 18.1933 14.4483 18.28 14.5583C18.3242 14.6233 18.3417 14.7175 18.3417 14.8317V14.9358C18.3417 15.2908 18.2442 15.7075 18.0517 16.1875C17.8592 16.6675 17.5908 17.055 17.2492 17.3558C17.1983 17.3967 17.1533 17.4175 17.1125 17.4175C17.0917 17.4175 17.07 17.4175 17.0508 17.4092C16.9875 17.3783 16.9758 17.3258 17.005 17.2417C17.3808 16.3658 17.565 15.7525 17.565 15.4075C17.565 15.3017 17.5442 15.2183 17.5033 15.1667C17.4042 15.0525 17.1225 14.9858 16.6533 14.9858C16.451 14.9888 16.2489 14.9997 16.0475 15.0183C15.795 15.0525 15.5625 15.0833 15.3525 15.1142C15.2908 15.1142 15.25 15.1025 15.2275 15.0833C15.2067 15.0625 15.2017 15.0508 15.2125 15.03C15.2125 15.0183 15.2175 15.0092 15.2275 14.9858V14.945L15.2358 14.9433Z" fill="#F8981D"/>
</svg>
