<svg width="34" height="34" viewBox="0 0 34 34" fill="none" xmlns="http://www.w3.org/2000/svg">
<path fill-rule="evenodd" clip-rule="evenodd" d="M11.2621 4.51281C13.0362 3.79465 14.9741 3.40002 17 3.40002C25.4499 3.40002 32.2999 10.2501 32.2999 18.7C32.2999 19.6389 31.5388 20.4 30.6 20.4C29.6611 20.4 28.9 19.6389 28.9 18.7C28.9 12.1278 23.5721 6.80002 17 6.80002C15.4187 6.80002 13.9135 7.10752 12.5378 7.6644C11.6675 8.01668 10.6764 7.59676 10.3242 6.72647C9.97187 5.85618 10.3918 4.86509 11.2621 4.51281ZM7.9249 8.42967C8.62882 9.05096 8.6958 10.1253 8.07451 10.8292C6.22207 12.928 5.09995 15.6809 5.09995 18.7C5.09995 19.6389 4.33884 20.4 3.39995 20.4C2.46107 20.4 1.69995 19.6389 1.69995 18.7C1.69995 14.8209 3.14576 11.2754 5.52539 8.57927C6.14669 7.87536 7.22098 7.80837 7.9249 8.42967Z" fill="#010A5C"/>
<path fill-rule="evenodd" clip-rule="evenodd" d="M8.49995 18.7C8.49995 14.0056 12.3055 10.2 17 10.2C21.6944 10.2 25.5 14.0056 25.5 18.7C25.5 19.6389 24.7388 20.4 23.7999 20.4C22.8611 20.4 22.1 19.6389 22.1 18.7C22.1 15.8834 19.8166 13.6 17 13.6C14.1833 13.6 11.9 15.8834 11.9 18.7C11.9 21.5512 11.314 24.2699 10.2545 26.7389C9.88419 27.6017 8.8846 28.001 8.02181 27.6307C7.15902 27.2604 6.75976 26.2609 7.13003 25.3981C8.01116 23.3449 8.49995 21.0817 8.49995 18.7ZM23.6659 22.121C24.5932 22.2681 25.2257 23.1391 25.0786 24.0663C24.8548 25.4774 24.5441 26.8598 24.1523 28.2077C23.8902 29.1093 22.9469 29.6277 22.0453 29.3656C21.1437 29.1035 20.6253 28.1602 20.8874 27.2586C21.2398 26.0465 21.5192 24.8032 21.7206 23.5337C21.8677 22.6064 22.7386 21.9739 23.6659 22.121Z" fill="#010A5C"/>
<path fill-rule="evenodd" clip-rule="evenodd" d="M17 17C17.9388 17 18.7 17.7611 18.7 18.7C18.7 22.5017 17.919 26.1254 16.5072 29.4161C16.137 30.2789 15.1375 30.6782 14.2746 30.3081C13.4118 29.9379 13.0124 28.9383 13.3826 28.0755C14.6161 25.2006 15.3 22.0324 15.3 18.7C15.3 17.7611 16.0611 17 17 17Z" fill="#010A5C"/>
</svg>
