<svg width="20" height="21" viewBox="0 0 20 21" fill="none" xmlns="http://www.w3.org/2000/svg">
    <defs>
        <linearGradient id="paint0_linear_1_307" x1="1.66666" y1="2.16666" x2="20.0349" y2="16.6798"
            gradientUnits="userSpaceOnUse">
            <stop stop-color="#54B0F7" />
            <stop offset="1" stop-color="#178EE8" />
        </linearGradient>
    </defs>
    <path
        d="M18.1712 8.86791H17.5V8.83332H9.99999V12.1667H14.7096C14.0225 14.1071 12.1762 15.5 9.99999 15.5C7.23874 15.5 4.99999 13.2612 4.99999 10.5C4.99999 7.73874 7.23874 5.49999 9.99999 5.49999C11.2746 5.49999 12.4342 5.98082 13.3171 6.76624L15.6742 4.40916C14.1858 3.02207 12.195 2.16666 9.99999 2.16666C5.39791 2.16666 1.66666 5.89791 1.66666 10.5C1.66666 15.1021 5.39791 18.8333 9.99999 18.8333C14.6021 18.8333 18.3333 15.1021 18.3333 10.5C18.3333 9.94124 18.2758 9.39582 18.1712 8.86791Z"
        fill="url(#paint0_linear_1_307)" />
    <path
        d="M2.6275 6.62124L5.36542 8.62916C6.10625 6.79499 7.90042 5.49999 10 5.49999C11.2746 5.49999 12.4342 5.98082 13.3171 6.76624L15.6742 4.40916C14.1858 3.02207 12.195 2.16666 10 2.16666C6.79917 2.16666 4.02334 3.97374 2.6275 6.62124Z"
        fill="#FF3D00" />
    <path
        d="M9.99999 18.8333C12.1525 18.8333 14.1083 18.0096 15.5871 16.67L13.0079 14.4875C12.1431 15.1452 11.0864 15.5009 9.99999 15.5C7.83249 15.5 5.99207 14.1179 5.29874 12.1892L2.58124 14.2829C3.9604 16.9817 6.76124 18.8333 9.99999 18.8333Z"
        fill="#4CAF50" />
    <path
        d="M18.1713 8.86793H17.5V8.83334H10V12.1667H14.7096C14.3809 13.0902 13.7889 13.8972 13.0067 14.4879L13.0079 14.4871L15.5871 16.6696C15.4046 16.8354 18.3333 14.6667 18.3333 10.5C18.3333 9.94126 18.2758 9.39584 18.1713 8.86793Z"
        fill="#1976D2" />
</svg>