<svg width="80" height="80" viewBox="0 0 80 80" fill="none" xmlns="http://www.w3.org/2000/svg">
<path d="M0 20.7103V5.62565C0 2.52393 2.52344 0.000488281 5.625 0.000488281H20.7097C22.0903 0.000488281 23.2097 1.11971 23.2097 2.50049C23.2097 3.88127 22.0903 5.00049 20.7097 5.00049H5.625C5.28625 5.00049 5 5.28674 5 5.62565V20.7103C5 22.0911 3.88063 23.2103 2.5 23.2103C1.11937 23.2103 0 22.0911 0 20.7103ZM20.7078 74.9996H5.625C5.28625 74.9996 5 74.7133 5 74.3744V59.2897C5 57.9089 3.88063 56.7897 2.5 56.7897C1.11937 56.7897 0 57.9089 0 59.2897V74.3744C0 77.4761 2.52344 79.9996 5.625 79.9996H20.7077C22.0883 79.9996 23.2077 78.8803 23.2077 77.4996C23.2077 76.1188 22.0884 74.9996 20.7078 74.9996ZM77.5 56.7897C76.1194 56.7897 75 57.9089 75 59.2897V74.3744C75 74.7133 74.7138 74.9996 74.375 74.9996H59.2903C57.9097 74.9996 56.7903 76.1188 56.7903 77.4996C56.7903 78.8803 57.9097 79.9996 59.2903 79.9996H74.375C77.4767 79.9996 80 77.4761 80 74.3744V59.2897C80 57.9089 78.8806 56.7897 77.5 56.7897ZM74.375 0.000488281H59.2912C57.9106 0.000488281 56.7912 1.11971 56.7912 2.50049C56.7912 3.88127 57.9106 5.00049 59.2912 5.00049H74.375C74.7138 5.00049 75 5.28674 75 5.62565V20.7103C75 22.0911 76.1194 23.2103 77.5 23.2103C78.8806 23.2103 80 22.0911 80 20.7103V5.62565C80 2.52393 77.4766 0.000488281 74.375 0.000488281ZM27.3573 20.3292C27.3573 13.3581 33.0288 7.68674 40 7.68674C46.9712 7.68674 52.6427 13.3581 52.6427 20.3292C52.6427 27.2997 46.9712 32.9706 40 32.9706C33.0288 32.9706 27.3573 27.2999 27.3573 20.3292ZM32.3573 20.3292C32.3573 24.5428 35.7858 27.9706 40 27.9706C44.2142 27.9706 47.6427 24.5428 47.6427 20.3292C47.6427 16.115 44.2142 12.6867 40 12.6867C35.7858 12.6867 32.3573 16.1152 32.3573 20.3292ZM40 37.5958C54.5869 37.5958 66.4544 49.4632 66.4544 64.0503C66.4544 65.4311 65.335 66.5503 63.9544 66.5503H16.0456C14.665 66.5503 13.5456 65.4311 13.5456 64.0503C13.5456 49.4632 25.4131 37.5958 40 37.5958ZM40 42.5958C29.0155 42.5958 19.9327 50.8936 18.6905 61.5503H61.3095C60.0673 50.8938 50.9845 42.5958 40 42.5958Z" fill="#FF6B00"/>
</svg>
