<svg width="20" height="21" viewBox="0 0 20 21" fill="none" xmlns="http://www.w3.org/2000/svg">
<path d="M10.0675 6.35076L11.6005 4.45944C13.5211 4.56507 15.3099 5.02696 16.9388 5.78137L16.8478 5.74324C16.3378 6.41675 15.6574 6.93923 14.8782 7.2558L14.8466 7.26705C14.7562 6.36764 14.1318 6.14826 12.1498 6.14826L10.0681 18L7.97403 6.14576C6.00442 6.14576 5.38009 6.36702 5.28904 7.2658C4.50224 6.95513 3.81378 6.43473 3.29713 5.76011L3.28908 5.74949C4.82575 5.03196 6.6145 4.56882 8.4974 4.46381L8.53518 4.46194L10.0681 6.35076H10.0675ZM10.0675 3.91316C10.1338 3.91191 10.2118 3.91191 10.2899 3.91191C12.7469 3.91191 15.0826 4.43693 17.1922 5.38197L17.0838 5.33885C17.2405 5.07325 17.3752 4.79499 17.4864 4.50694L17.5 4.46756C15.3006 3.55315 12.7488 3.01563 10.0737 3H10.0675C7.47183 3.01068 4.9025 3.52593 2.5 4.51756L2.63502 4.46819C2.77376 4.81508 2.91312 5.10259 3.07044 5.37947L3.05124 5.34322C5.05678 4.43818 7.39739 3.91129 9.86064 3.91129L10.0787 3.91254H10.0675V3.91316Z" fill="#E82127"/>
</svg>
